<?xml version="1.0" standalone="no"?>
<!DOCTYPE svg PUBLIC "-//W3C//DTD SVG 20010904//EN"
 "http://www.w3.org/TR/2001/REC-SVG-20010904/DTD/svg10.dtd">
<svg version="1.0" xmlns="http://www.w3.org/2000/svg"
 width="512.000000pt" height="512.000000pt" viewBox="0 0 512.000000 512.000000"
 preserveAspectRatio="xMidYMid meet">
<g transform="translate(0.000000,512.000000) scale(0.100000,-0.100000)"
fill="#000000" stroke="none">
<path d="M2160 4012 l-314 -53 -269 -140 c-262 -136 -274 -144 -485 -307
l-217 -168 -148 -194 c-142 -187 -154 -206 -278 -452 -71 -142 -129 -263 -129
-269 0 -16 116 -169 386 -506 495 -617 766 -943 786 -943 11 0 131 36 268 79
213 68 289 87 527 132 245 46 314 54 578 73 283 21 316 21 575 9 265 -13 284
-16 519 -64 135 -27 248 -46 252 -42 4 5 69 123 145 263 271 503 432 900 455
1122 l12 113 -134 229 -134 228 -230 223 c-230 222 -230 223 -445 361 l-215
138 -305 98 -305 99 -220 9 c-121 5 -251 11 -290 13 -51 2 -153 -11 -385 -51z
m345 -100 c-3 -3 -85 -7 -183 -9 l-177 -3 160 53 160 53 23 -44 c13 -24 21
-47 17 -50z m224 63 c84 -13 155 -26 157 -28 2 -2 -51 -9 -119 -16 -67 -7
-139 -15 -159 -18 -35 -5 -37 -3 -57 35 -27 52 -26 60 2 55 12 -2 91 -14 176
-28z m-654 -41 c-99 -36 -133 -43 -145 -29 -8 10 5 16 67 28 101 19 128 19 78
1z m1010 -46 c10 -47 10 -148 0 -148 -14 1 -401 128 -395 130 12 5 309 37 347
39 37 1 43 -2 48 -21z m-1212 -2 c16 -13 8 -17 -80 -46 -54 -18 -105 -35 -113
-37 -8 -3 26 18 75 46 50 28 92 51 95 50 3 0 13 -6 23 -13z m1663 -193 c-4 -4
-381 29 -386 34 -3 2 -7 42 -8 88 l-4 84 200 -102 c110 -56 199 -103 198 -104z
m-47 138 c73 -16 134 -31 137 -33 2 -3 7 -26 10 -52 l7 -48 -148 76 c-82 42
-151 79 -154 81 -8 9 14 5 148 -24z m-1124 -19 c-38 -21 -118 -64 -176 -95
l-107 -57 -46 85 c-25 47 -46 87 -46 89 0 7 110 12 295 14 l150 2 -70 -38z
m196 -67 c13 -52 21 -96 18 -98 -2 -1 -93 0 -201 3 l-197 5 172 92 c94 51 175
93 179 93 3 0 16 -43 29 -95z m235 34 c104 -33 192 -64 197 -68 4 -4 -72 -19
-169 -35 -97 -15 -180 -24 -184 -19 -4 4 -15 40 -24 78 -9 39 -19 78 -22 88
-3 9 -1 17 4 17 5 0 94 -27 198 -61z m-811 -45 c26 -47 45 -87 43 -89 -1 -1
-101 -23 -222 -48 -146 -30 -214 -41 -205 -31 23 23 324 254 331 254 3 0 27
-39 53 -86z m-344 -71 c-84 -65 -156 -118 -161 -118 -4 0 -26 23 -48 52 l-41
51 72 26 c135 49 302 104 316 105 8 1 -55 -52 -138 -116z m2226 -28 c46 -32
81 -60 79 -62 -3 -3 -236 93 -243 100 -1 2 -5 23 -9 47 l-7 44 49 -35 c27 -19
86 -61 131 -94z m-835 -127 l-48 -137 -140 107 c-77 59 -142 112 -144 117 -2
6 76 23 186 41 127 21 190 27 191 20 2 -6 -19 -73 -45 -148z m434 137 c94 -8
174 -15 176 -15 3 0 -9 -56 -26 -125 -16 -69 -33 -125 -37 -125 -5 0 -335 255
-364 281 -5 6 9 7 35 4 25 -3 122 -12 216 -20z m-143 -132 c96 -76 176 -142
176 -147 1 -4 -102 -9 -229 -10 -147 -1 -230 3 -230 9 0 19 93 285 100 285 4
0 86 -62 183 -137z m-1906 19 c9 -12 14 -24 12 -26 -2 -2 -85 -45 -184 -96
-205 -107 -205 -113 -12 92 l112 119 28 -33 c16 -18 36 -43 44 -56z m1070 59
l73 -6 -103 -127 c-56 -70 -105 -127 -108 -128 -3 0 -38 42 -79 93 -40 50 -89
111 -108 135 l-34 42 143 -1 c79 -1 177 -4 216 -8z m1468 -241 c61 -61 103
-109 95 -106 -8 3 -103 26 -210 52 -107 25 -198 49 -203 53 -6 6 8 76 44 214
l10 38 77 -70 c42 -38 127 -120 187 -181z m-2093 65 c-77 -91 -143 -167 -146
-168 -4 -1 -49 52 -101 118 -70 88 -91 121 -79 123 9 2 116 25 238 51 121 26
223 46 224 45 2 -1 -59 -77 -136 -169z m310 48 c51 -65 101 -127 110 -139 l17
-21 -167 -23 c-92 -12 -209 -27 -260 -34 -88 -12 -92 -12 -80 5 30 42 274 328
280 328 3 1 48 -52 100 -116z m611 -2 c75 -58 135 -106 133 -108 -4 -4 -499
-41 -504 -37 -2 1 45 61 103 133 73 90 110 129 119 124 7 -5 74 -55 149 -112z
m1220 29 l149 -63 -7 -86 c-4 -47 -9 -88 -11 -89 -1 -2 -76 69 -166 157 -95
94 -153 157 -138 152 14 -5 92 -37 173 -71z m-2970 -125 c-48 -52 -91 -95 -95
-95 -4 0 -10 9 -13 21 -5 14 -1 25 12 34 10 7 54 41 98 74 44 33 81 61 83 61
2 0 -36 -43 -85 -95z m540 -30 c49 -62 90 -117 90 -120 2 -7 -464 -177 -470
-172 -2 2 40 66 93 143 155 224 185 264 192 264 4 -1 47 -52 95 -115z m-189
83 c-11 -19 -255 -371 -264 -381 -7 -8 -140 153 -140 170 0 6 382 214 408 222
2 1 0 -5 -4 -11z m2992 -272 c40 -50 71 -92 69 -94 -2 -2 -61 32 -131 75
l-129 79 3 49 c1 28 5 65 8 84 l5 33 52 -67 c29 -38 84 -109 123 -159z m-1443
122 c-11 -18 -59 -104 -108 -191 -49 -86 -92 -156 -97 -155 -14 5 -317 332
-312 337 4 5 403 36 502 40 l34 1 -19 -32z m560 -125 c-36 -87 -70 -171 -75
-186 -6 -15 -14 -27 -18 -25 -4 2 -62 64 -130 138 -68 74 -144 156 -169 183
l-45 47 251 0 252 0 -66 -157z m-288 -78 l146 -160 -277 -3 c-152 -1 -279 0
-281 2 -4 4 36 76 184 335 l25 43 28 -28 c16 -16 94 -101 175 -189z m574 -4
c94 -118 169 -216 167 -219 -6 -5 -455 47 -478 56 -14 6 -6 32 60 194 42 103
77 186 78 185 1 -1 79 -98 173 -216z m129 167 c114 -28 208 -52 210 -53 4 -3
-99 -299 -107 -308 -4 -4 -82 87 -174 203 -94 119 -160 210 -152 210 9 0 109
-23 223 -52z m-3014 15 c5 -12 -14 -38 -69 -92 l-77 -76 64 92 c35 51 66 93
69 93 4 0 10 -8 13 -17z m1396 1 c0 -16 -244 -414 -250 -407 -54 60 -271 336
-267 340 5 4 449 69 495 72 12 0 22 -2 22 -5z m278 -233 c103 -109 111 -121
90 -125 -45 -10 -538 -68 -546 -64 -5 1 48 97 117 212 l125 209 51 -55 c27
-31 101 -110 163 -177z m1945 62 c5 -27 6 -27 -45 37 -54 69 -55 79 -5 31 25
-24 47 -54 50 -68z m-3509 12 c37 -47 66 -89 64 -95 -2 -5 -77 -59 -167 -120
-90 -62 -162 -107 -160 -102 5 13 193 402 195 402 0 0 31 -38 68 -85z m622 3
c-19 -35 -77 -143 -129 -241 l-95 -179 -122 152 c-67 83 -120 153 -118 154 5
4 482 174 490 175 4 1 -8 -27 -26 -61z m233 -110 c72 -90 131 -167 132 -173 0
-8 -521 -147 -528 -141 -5 4 253 484 258 480 4 -2 65 -77 138 -166z m2558
-284 c-2 -2 -279 92 -354 120 -10 4 15 86 93 306 3 8 59 -77 135 -204 71 -121
128 -220 126 -222z m-9 316 c67 -40 122 -77 122 -82 0 -28 -54 -218 -60 -211
-13 15 -230 381 -230 388 0 4 10 1 23 -7 12 -8 77 -47 145 -88z m-3621 -27
c-24 -49 -61 -125 -82 -170 -42 -91 -43 -91 -91 -22 l-28 40 120 120 c65 65
120 119 121 119 2 0 -16 -39 -40 -87z m463 -207 c61 -77 107 -143 103 -147
-11 -11 -397 -180 -404 -177 -4 2 34 110 84 241 50 131 94 234 98 230 4 -4 57
-71 119 -147z m-195 117 c-4 -10 -43 -112 -86 -227 -44 -116 -81 -211 -83
-213 -6 -6 -177 210 -174 219 4 10 329 236 342 237 4 1 5 -7 1 -16z m3588
-203 c36 -85 64 -157 61 -159 -2 -2 -46 24 -97 58 l-94 62 26 104 c14 58 28
101 32 97 4 -4 37 -77 72 -162z m-1390 -73 l-117 -235 -169 225 c-113 151
-165 228 -157 233 6 4 135 8 286 9 l275 2 -118 -234z m-684 -35 l-122 -250
-169 210 c-94 115 -167 212 -163 216 6 6 566 81 573 77 1 -1 -52 -115 -119
-253z m1170 228 c129 -16 235 -31 237 -33 5 -5 -188 -417 -196 -417 -4 0 -10
6 -13 13 -3 7 -68 110 -144 228 -77 118 -143 220 -147 227 -10 17 -6 16 263
-18z m-160 -239 c84 -128 150 -236 147 -238 -8 -8 -520 19 -529 27 -5 4 43
109 105 233 62 125 115 223 119 219 4 -4 75 -112 158 -241z m-654 3 l163 -219
-96 -7 c-261 -21 -487 -36 -490 -33 -2 2 51 115 117 251 86 174 124 245 132
237 6 -6 84 -109 174 -229z m1794 141 c50 -63 52 -67 45 -111 -3 -25 -8 -43
-10 -41 -6 5 -94 217 -90 217 1 0 26 -29 55 -65z m-4120 10 l33 -46 -59 -70
c-98 -120 -102 -124 -103 -114 0 9 63 205 85 263 7 18 9 16 44 -33z m3668 -37
c98 -33 179 -62 181 -63 1 -1 -25 -69 -59 -151 -34 -82 -66 -160 -71 -174 -8
-22 -21 -1 -123 205 -109 218 -121 245 -111 245 2 0 85 -28 183 -62z m-2267
48 c0 -2 -46 -108 -101 -237 -56 -129 -107 -247 -114 -262 l-12 -28 -154 190
c-85 105 -155 195 -157 200 -1 4 113 38 255 74 253 64 283 71 283 63z m240
-231 c134 -166 158 -201 143 -207 -30 -11 -543 -102 -548 -96 -3 2 46 122 107
266 88 204 115 259 125 249 6 -6 84 -102 173 -212z m1903 -11 c65 -130 116
-238 114 -240 -8 -8 -422 63 -422 72 0 14 178 404 185 404 3 0 58 -106 123
-236z m-3379 21 c42 -52 79 -101 81 -107 3 -8 -47 -49 -120 -100 -77 -54 -125
-82 -125 -73 0 15 67 339 75 363 2 6 6 12 9 12 2 0 38 -43 80 -95z m-184 -113
c-21 -96 -40 -175 -42 -177 -1 -2 -27 28 -56 65 l-52 68 92 111 c51 60 94 109
95 108 1 -2 -16 -80 -37 -175z m780 163 c0 -13 -153 -491 -160 -498 -3 -4 -64
65 -134 153 -71 89 -126 163 -124 165 6 6 401 183 411 184 4 1 7 -1 7 -4z
m3293 -67 c48 -32 87 -60 87 -61 0 -3 -66 -202 -76 -227 -4 -12 -124 327 -124
353 0 10 3 8 113 -65z m-3075 -130 c84 -104 151 -192 149 -194 -6 -6 -470
-134 -473 -131 -5 4 160 517 166 516 3 0 74 -86 158 -191z m3037 -216 c-3 -4
-249 71 -258 78 -7 6 99 290 121 325 3 5 36 -83 72 -195 37 -113 66 -206 65
-208z m-4216 299 c-6 -18 -14 -30 -17 -27 -2 3 1 19 8 36 16 40 23 33 9 -9z
m425 -317 c-18 -108 -34 -203 -36 -211 -2 -8 -42 34 -96 102 -51 64 -92 120
-90 125 3 10 238 179 249 180 3 0 -9 -88 -27 -196z m217 35 c66 -83 118 -153
115 -157 -10 -10 -309 -123 -313 -118 -4 4 54 387 62 414 3 6 7 12 9 12 3 0
60 -68 127 -151z m2047 121 c-11 -33 -244 -469 -250 -467 -10 3 -329 429 -325
433 4 4 460 40 535 43 24 0 42 -3 40 -9z m481 -6 c94 -4 171 -9 171 -12 0 -9
-254 -442 -260 -442 -3 0 -69 107 -148 237 l-143 236 104 -6 c58 -4 182 -10
276 -13z m-279 -250 l140 -229 -38 -7 c-20 -4 -142 -7 -270 -7 l-234 -1 93
178 c119 229 160 304 166 299 2 -3 66 -107 143 -233z m770 195 c113 -18 207
-33 208 -35 2 -1 -44 -97 -103 -214 -59 -116 -110 -208 -113 -205 -7 7 -212
468 -212 477 0 11 -9 12 220 -23z m-1669 -21 c-10 -24 -60 -141 -110 -260
l-92 -217 -176 200 c-96 110 -172 204 -168 207 5 5 508 105 557 111 4 1 -1
-18 -11 -41z m1507 -223 c61 -137 110 -250 109 -251 -4 -3 -472 58 -476 61 -1
2 54 103 125 224 70 122 128 220 130 219 1 -2 52 -115 112 -253z m-1268 20
c90 -118 161 -217 159 -218 -5 -4 -543 -74 -547 -72 -5 3 212 505 219 505 3 0
79 -97 169 -215z m1988 90 c3 -3 -142 -323 -150 -330 -3 -4 -64 206 -115 397
-4 13 17 9 129 -24 73 -23 134 -42 136 -43z m-202 -358 l6 -28 -159 7 c-87 3
-160 9 -163 11 -2 2 42 97 99 211 l104 207 53 -190 c29 -104 56 -203 60 -218z
m-2676 381 c-1 -14 -157 -515 -161 -518 -7 -6 -322 380 -316 386 4 4 453 131
470 133 4 1 7 0 7 -1z m249 -237 c83 -96 151 -177 151 -180 0 -7 -501 -134
-506 -129 -2 3 50 183 127 432 l31 99 23 -24 c13 -13 91 -102 174 -198z m-814
57 c-3 -13 -19 -111 -36 -218 -16 -107 -32 -196 -34 -198 -3 -4 -248 293 -252
306 -2 6 295 127 320 131 4 0 5 -9 2 -21z m213 -198 c83 -102 149 -186 147
-188 -5 -5 -370 -70 -374 -66 -7 6 63 444 70 442 4 -2 75 -86 157 -188z m1910
-190 c-129 -188 -130 -190 -147 -167 -26 34 -237 330 -245 345 -6 9 49 12 258
12 l265 0 -131 -190z m477 160 c105 -12 198 -24 207 -28 13 -6 -8 -39 -115
-174 -73 -92 -134 -167 -137 -168 -5 0 -200 385 -200 396 0 3 12 3 28 0 15 -3
113 -14 217 -26z m-985 14 c0 -12 -215 -403 -221 -401 -16 6 -310 330 -304
335 4 4 113 21 243 38 260 34 282 37 282 28z m189 -193 c66 -93 122 -175 123
-182 2 -11 -48 -17 -232 -30 -129 -9 -237 -15 -239 -14 -6 6 213 404 220 399
4 -2 61 -80 128 -173z m596 -7 c50 -102 91 -191 93 -197 2 -9 -49 -10 -217 -2
-121 6 -221 12 -224 15 -6 6 242 370 251 370 4 -1 48 -84 97 -186z m828 127
c4 -4 -38 -92 -94 -195 -65 -119 -105 -183 -109 -174 -4 7 -29 90 -54 183 -26
94 -50 178 -53 189 -5 18 1 18 148 11 85 -4 158 -10 162 -14z m-2256 -23
c-129 -348 -153 -407 -164 -403 -19 7 -333 288 -328 293 5 6 463 120 484 121
7 1 11 -5 8 -11z m1953 -196 c29 -106 50 -195 47 -198 -3 -3 -89 11 -191 32
l-185 37 52 66 c29 37 88 113 132 169 44 56 83 98 86 94 4 -4 30 -94 59 -200z
m-1736 31 c86 -91 155 -168 153 -170 -2 -2 -100 -21 -218 -43 -118 -22 -224
-42 -235 -45 -19 -4 -14 16 59 210 44 118 82 215 83 215 1 0 73 -75 158 -167z
m-810 20 c-2 -10 -20 -101 -39 -203 -20 -102 -38 -191 -40 -198 -3 -7 -70 66
-151 163 -80 98 -143 179 -141 181 4 4 335 70 364 73 6 1 9 -7 7 -16z m386
-303 c0 -9 -400 -133 -407 -127 -5 5 60 378 72 415 3 8 70 -45 170 -135 91
-81 165 -150 165 -153z"/>
</g>
</svg>
